<svg width="25" height="25" viewBox="0 0 25 25" fill="none" xmlns="http://www.w3.org/2000/svg">
<path fill-rule="evenodd" clip-rule="evenodd" d="M4.82227 5.40674C4.27455 5.40674 3.82227 5.85902 3.82227 6.40674V18.4067C3.82227 18.9545 4.27455 19.4067 4.82227 19.4067H20.8223C21.37 19.4067 21.8223 18.9545 21.8223 18.4067V6.40674C21.8223 5.85902 21.37 5.40674 20.8223 5.40674H4.82227ZM1.82227 6.40674C1.82227 4.75445 3.16998 3.40674 4.82227 3.40674H20.8223C22.4746 3.40674 23.8223 4.75445 23.8223 6.40674V18.4067C23.8223 20.059 22.4746 21.4067 20.8223 21.4067H4.82227C3.16998 21.4067 1.82227 20.059 1.82227 18.4067V6.40674Z" fill="#f4cd48"/>
<path fill-rule="evenodd" clip-rule="evenodd" d="M2.00312 5.8333C2.31983 5.38085 2.94336 5.27082 3.39581 5.58753L12.8224 12.1861L22.2489 5.58753C22.7013 5.27082 23.3249 5.38085 23.6416 5.8333C23.9583 6.28575 23.8483 6.90928 23.3958 7.226L13.3958 14.226C13.0515 14.467 12.5932 14.467 12.2489 14.226L2.24889 7.226C1.79644 6.90928 1.68641 6.28575 2.00312 5.8333Z" fill="#f4cd48"/>
</svg>
