<svg width="25" height="25" viewBox="0 0 25 25" fill="none" xmlns="http://www.w3.org/2000/svg">
<g clip-path="url(#clip0)">
<path fill-rule="evenodd" clip-rule="evenodd" d="M12.2129 2.40674C10.0912 2.40674 8.05633 3.24959 6.55604 4.74988C5.05575 6.25017 4.21289 8.28501 4.21289 10.4067C4.21289 13.5048 6.22863 16.511 8.43884 18.844C9.5235 19.9889 10.6116 20.9262 11.4296 21.5776C11.734 21.82 11.9999 22.0219 12.2129 22.1793C12.4259 22.0219 12.6918 21.82 12.9962 21.5776C13.8142 20.9262 14.9023 19.9889 15.9869 18.844C18.1972 16.511 20.2129 13.5048 20.2129 10.4067C20.2129 8.28501 19.37 6.25017 17.8697 4.74988C16.3695 3.24959 14.3346 2.40674 12.2129 2.40674ZM12.2129 23.4067C11.6582 24.2388 11.6579 24.2386 11.6576 24.2384L11.6548 24.2365L11.6481 24.232L11.6252 24.2165C11.6057 24.2033 11.578 24.1843 11.5424 24.1597C11.4714 24.1105 11.3694 24.0389 11.2407 23.9459C10.9834 23.7601 10.6193 23.489 10.1837 23.1421C9.31422 22.4498 8.15228 21.4496 6.98694 20.2195C4.69715 17.8025 2.21289 14.3087 2.21289 10.4067C2.21289 7.75457 3.26646 5.21103 5.14182 3.33567C7.01719 1.46031 9.56073 0.406738 12.2129 0.406738C14.8651 0.406738 17.4086 1.46031 19.284 3.33567C21.1593 5.21103 22.2129 7.75457 22.2129 10.4067C22.2129 14.3087 19.7286 17.8025 17.4388 20.2195C16.2735 21.4496 15.1116 22.4498 14.2421 23.1421C13.8065 23.489 13.4423 23.7601 13.1851 23.9459C13.0564 24.0389 12.9544 24.1105 12.8833 24.1597C12.8478 24.1843 12.82 24.2033 12.8006 24.2165L12.7777 24.232L12.771 24.2365L12.7689 24.2379C12.7686 24.2381 12.7676 24.2388 12.2129 23.4067ZM12.2129 23.4067L12.7676 24.2388C12.4317 24.4627 11.9935 24.4624 11.6576 24.2384L12.2129 23.4067Z" fill="#f4cd48"/>
<path fill-rule="evenodd" clip-rule="evenodd" d="M12.2129 8.40674C11.1083 8.40674 10.2129 9.30217 10.2129 10.4067C10.2129 11.5113 11.1083 12.4067 12.2129 12.4067C13.3175 12.4067 14.2129 11.5113 14.2129 10.4067C14.2129 9.30217 13.3175 8.40674 12.2129 8.40674ZM8.21289 10.4067C8.21289 8.1976 10.0038 6.40674 12.2129 6.40674C14.422 6.40674 16.2129 8.1976 16.2129 10.4067C16.2129 12.6159 14.422 14.4067 12.2129 14.4067C10.0038 14.4067 8.21289 12.6159 8.21289 10.4067Z" fill="#f4cd48"/>
</g>
<defs>
<clipPath id="clip0">
<path d="M0.212891 0.406738H24.2129V24.4067H0.212891V0.406738Z" fill="white"/>
</clipPath>
</defs>
</svg>
